{"title":"The Woman In Black[2012]BRrip[Ac3-5.1]-=[CaLvIn]=-","uid":7795776,"size":747094115,"categoryP":"video","categoryS":"movies","magnet":"?xt=urn:btih:6cae35db4dd1eec7475d6a2bfa14452620c9da72&amp;dn=The+Woman+In+Black%5B2012%5DBRrip%5BAc3-5.1%5D-%3D%5BCaLvIn%5D%3D-&amp;tr=udp%3A%2F%2Ftracker.openbittorrent.com%3A80&amp;tr=udp%3A%2F%2Fopen.demonii.com%3A1337&amp;tr=udp%3A%2F%2Ftracker.coppersurfer.tk%3A6969&amp;tr=udp%3A%2F%2Fexodus.desync.com%3A6969","seeders":0,"leechers":1,"uploader":"rhythmtheguru","files":15,"time":1352140274,"description":"General\n\nComplete name                    : The Woman In Black[2012]BRrip[Ac3-5.1]-=[CaLvIn]=-\nImdb Link                        : http://www.imdb.com/title/tt1596365/\nFormat                           : AVI\nFormat/Info                      : Audio Video Interleave\nFile size                        : 700 MiB\nDuration                         : 1h 35mn\nOverall bit rate                 : 1 026 Kbps\nWriting application              : VirtualDubMod 1.5.10.3 | www.virtualdub-fr.org || (build 2550/release)\nWriting library                  : VirtualDubMod build 2550/release\n\nVideo\n\nID                               : 0\nFormat                           : MPEG-4 Visual\nFormat profile                   : Advanced Simple@L5\nFormat settings, BVOP            : 2\nFormat settings, QPel            : No\nFormat settings, GMC             : No warppoints\nFormat settings, Matrix          : Default (H.263)\nCodec ID                         : XVID\nCodec ID/Hint                    : XviD\nDuration                         : 1h 35mn\nBit rate                         : 825 Kbps\nWidth                            : 720 pixels\nHeight                           : 304 pixels\nDisplay aspect ratio             : 16:9\nFrame rate                       : 23.976 fps\nColor space                      : YUV\nChroma subsampling               : 4:2:0\nBit depth                        : 8 bits\nScan type                        : Progressive\nCompression mode                 : Lossy\nBits/(Pixel*Frame)               : 0.157\nStream size                      : 562 MiB (80%)\nWriting library                  : XviD 1.2.1 (UTC 2008-12-04)\n\nAudio\n\nID                               : 1\nFormat                           : AC-3\nFormat/Info                      : Audio Coding 3\nMode extension                   : CM (complete main)\nCodec ID                         : 2000\nDuration                         : 1h 35mn\nBit rate mode                    : Constant\nBit rate                         : 192 Kbps\nChannel(s)                       : 6 channels\nChannel positions                : Front: L C R, Side: L R, LFE\nSampling rate                    : 48.0 KHz\nBit depth                        : 16 bits\nCompression mode                 : Lossy\nStream size                      : 131 MiB (19%)\nAlignment                        : Split accross interleaves\nInterleave, duration             : 42 ms (1.00 video frame)\nInterleave, preload duration     : 500 ms\n\nScreenshots\n &lt;a href=&quot;\nhttp://img252.imageshack.us/img252/8562/52648537.png&quot; rel=&quot;nofollow&quot; target=&quot;_NEW&quot;&gt;\nhttp://img252.imageshack.us/img252/8562/52648537.png&lt;/a&gt; &lt;a href=&quot;\nhttp://img24.imageshack.us/img24/4301/19085982.png&quot; rel=&quot;nofollow&quot; target=&quot;_NEW&quot;&gt;\nhttp://img24.imageshack.us/img24/4301/19085982.png&lt;/a&gt; &lt;a href=&quot;\nhttp://img41.imageshack.us/img41/8615/90519881.png&quot; rel=&quot;nofollow&quot; target=&quot;_NEW&quot;&gt;\nhttp://img41.imageshack.us/img41/8615/90519881.png&lt;/a&gt; &lt;a href=&quot;\nhttp://img521.imageshack.us/img521/5955/19356777.png&quot; rel=&quot;nofollow&quot; target=&quot;_NEW&quot;&gt;\nhttp://img521.imageshack.us/img521/5955/19356777.png&lt;/a&gt; &lt;a href=&quot;\nhttp://img191.imageshack.us/img191/3492/38899110.png&quot; rel=&quot;nofollow&quot; target=&quot;_NEW&quot;&gt;\nhttp://img191.imageshack.us/img191/3492/38899110.png&lt;/a&gt; &lt;a href=&quot;\nhttp://img7.imageshack.us/img7/1845/34306538q.png&quot; rel=&quot;nofollow&quot; target=&quot;_NEW&quot;&gt;\nhttp://img7.imageshack.us/img7/1845/34306538q.png&lt;/a&gt; &lt;a href=&quot;\nhttp://img846.imageshack.us/img846/1779/44164140.png&quot; rel=&quot;nofollow&quot; target=&quot;_NEW&quot;&gt;\nhttp://img846.imageshack.us/img846/1779/44164140.png&lt;/a&gt; &lt;a href=&quot;\nhttp://img542.imageshack.us/img542/1585/67434818.png&quot; rel=&quot;nofollow&quot; target=&quot;_NEW&quot;&gt;\nhttp://img542.imageshack.us/img542/1585/67434818.png&lt;/a&gt; &lt;a href=&quot;\nhttp://img23.imageshack.us/img23/8626/93807395.png&quot; rel=&quot;nofollow&quot; target=&quot;_NEW&quot;&gt;\nhttp://img23.imageshack.us/img23/8626/93807395.png&lt;/a&gt; &lt;a href=&quot;\nhttp://img802.imageshack.us/img802/3650/91207266.png&quot; rel=&quot;nofollow&quot; target=&quot;_NEW&quot;&gt;\nhttp://img802.imageshack.us/img802/3650/91207266.png&lt;/a&gt;","torrent":{"xt":"urn:btih:6cae35db4dd1eec7475d6a2bfa14452620c9da72","amp;dn":"The+Woman+In+Black%5B2012%5DBRrip%5BAc3-5.1%5D-%3D%5BCaLvIn%5D%3D-","amp;tr":["udp%3A%2F%2Ftracker.openbittorrent.com%3A80","udp%3A%2F%2Fopen.demonii.com%3A1337","udp%3A%2F%2Ftracker.coppersurfer.tk%3A6969","udp%3A%2F%2Fexodus.desync.com%3A6969"],"infoHash":"6cae35db4dd1eec7475d6a2bfa14452620c9da72","infoHashBuffer":{"type":"Buffer","data":[108,174,53,219,77,209,238,199,71,93,106,43,250,20,69,38,32,201,218,114]},"announce":[],"urlList":[]}}